# xmcd
#
# Track frame offsets:
# 150
# 25751
# 47661
# 67174
# 94250
# 110243
# 122720
# 139959
# 159881
# 191081
# 204275
# 222069
# 242420
# 259265
# 277955
# 307444
#
# Disc length: 4323 seconds
#
#
# Revision: 0
# Processed by: cddbd v1.5.2PL0 Copyright (c) Steve Scherf et al.
# Submitted via: FreeRIP 2.951 
#
DISCID=f110e110
DTITLE=Os Fagundes - Ao Vivo
DYEAR=2005
DGENRE=Gaucha
TTITLE0=Origens
TTITLE1=Tropeiro Velho
TTITLE2=To no Vanerao
TTITLE3=Galpao Crioulo
TTITLE4=Sestiando nos Meus Pelegos
TTITLE5=No Balanco da Morena
TTITLE6=Oh de Casa
TTITLE7=Ultima Lembranca
TTITLE8=Querencia
TTITLE9=Menino da Porteira
TTITLE10=Baita Baile
TTITLE11=O Colono
TTITLE12=Tambor do Coracao
TTITLE13=A Gente Canta
TTITLE14=Canto Alegretense
TTITLE15=Querencia Amada
EXTD=
EXTT0=
EXTT1=
EXTT2=
EXTT3=
EXTT4=
EXTT5=
EXTT6=
EXTT7=
EXTT8=
EXTT9=
EXTT10=
EXTT11=
EXTT12=
EXTT13=
EXTT14=
EXTT15=
PLAYORDER=
